<svg width="187" height="161" viewBox="0 0 187 161" fill="none" xmlns="http://www.w3.org/2000/svg">
<path fill-rule="evenodd" clip-rule="evenodd" d="M16.207 111.413L16.219 54.8081L28.0981 54.8236C46.3453 55.9166 54.0022 63.0728 53.9448 81.6854C53.862 108.349 39.3127 111.303 27.1324 111.413H16.207V111.413ZM16.2187 52.0071L16.2217 3.21906C16.2217 3.21906 25.0235 3.22016 27.1238 3.22016C42.9679 3.22016 47.8715 13.0443 47.7661 27.4673C47.9675 45.3872 42.2385 51.4054 27.9345 51.9995L16.2187 52.0071V52.0071ZM0 114.248L27.1654 114.224C49.3931 113.963 71.0891 108.217 70.1598 81.7221C69.5898 65.4739 61.545 56.4964 46.2977 52.2044C56.4661 47.0018 60.8209 41.4455 60.8076 29.7196C60.7801 5.89304 46.0202 0.644436 27.1389 0.0461368L0.225221 0L0 114.248V114.248Z" fill="#8B8B8B"/>
<path fill-rule="evenodd" clip-rule="evenodd" d="M126.079 111.009L126.08 3.20395C140.609 3.31733 155.913 1.80289 162.14 14.5263C167.513 24.686 168.523 93.0327 160.972 101.476C156.178 108.713 146.657 110.773 134.833 111.012L126.079 111.009V111.009ZM104.55 114.23L146.501 114.297C155.437 113.719 163.563 112.379 169.102 109.542C187.863 99.9357 186.822 81.7996 186.822 57.1952C186.822 32.3811 187.853 14.2553 169.101 4.4595C164.249 1.92532 157.015 0.630826 148.922 0.0189209L104.55 0.0843244V114.23Z" fill="#8B8B8B"/>
<path fill-rule="evenodd" clip-rule="evenodd" d="M75.6655 114.226H96.5421L96.5402 0.0586335L75.6659 0.0582275L75.6655 114.226Z" fill="#8B8B8B"/>
<path d="M13.8958 159.904C8.80252 159.904 4.22739 158.088 0.173096 154.455L1.82738 152.557C3.74095 154.341 5.63906 155.63 7.52051 156.426C9.40234 157.22 11.5759 157.618 14.0417 157.618C16.5717 157.618 18.6395 156.977 20.2454 155.696C21.8513 154.414 22.6537 152.767 22.6537 150.757C22.6537 148.875 21.9813 147.383 20.635 146.279C19.288 145.177 16.7497 144.252 13.0197 143.506C8.93217 142.662 5.99507 141.494 4.21114 140.002C2.4272 138.51 1.5352 136.45 1.5352 133.822C1.5352 131.292 2.57308 129.167 4.64918 127.447C6.72527 125.727 9.33696 124.869 12.4842 124.869C14.8842 124.869 16.9855 125.201 18.7857 125.865C20.5859 126.531 22.379 127.577 24.1629 129.005L22.557 131C19.6052 128.437 16.2141 127.155 12.3862 127.155C9.92082 127.155 7.91843 127.779 6.37676 129.029C4.8366 130.278 4.06527 131.827 4.06527 133.676C4.06527 135.59 4.755 137.114 6.13301 138.25C7.51254 139.386 10.1321 140.342 13.9921 141.121C17.9179 141.932 20.7651 143.084 22.5331 144.576C24.3008 146.069 25.1849 148.08 25.1849 150.611C25.1849 153.335 24.1308 155.566 22.0214 157.302C19.9132 159.036 17.204 159.904 13.8958 159.904V159.904ZM42.2158 159.418V127.691H30.3428V125.355H56.62V127.691H44.7469V159.418H42.2158ZM77.7396 159.954C73.5545 159.954 70.1805 158.672 67.6172 156.109C65.0551 153.546 63.7735 149.929 63.7735 145.257V125.355H66.3035V145.014C66.3035 149.005 67.3251 152.111 69.3691 154.333C71.4131 156.555 74.236 157.666 77.8363 157.666C81.3721 157.666 84.1459 156.604 86.1573 154.479C88.1688 152.355 89.1749 149.281 89.1749 145.257V125.355H91.7049V144.966C91.7049 149.735 90.4392 153.425 87.9091 156.036C85.3791 158.648 81.9893 159.954 77.7396 159.954V159.954ZM101.292 159.418V125.355H112.629C117.95 125.355 122.296 126.969 125.67 130.197C129.045 133.424 130.731 137.488 130.731 142.386C130.731 147.253 129.036 151.307 125.646 154.552C122.256 157.796 117.917 159.418 112.629 159.418H101.292ZM103.822 157.082H112.629C117.269 157.082 121.008 155.687 123.846 152.897C126.684 150.107 128.104 146.604 128.104 142.386C128.104 138.234 126.684 134.747 123.846 131.924C121.008 129.103 117.269 127.691 112.629 127.691H103.822V157.082ZM139.685 159.418V125.355H142.215V159.418H139.685ZM180.609 154.795C177.397 158.266 173.277 160.002 168.248 160.002C163.22 160.002 159.117 158.274 155.937 154.82C152.758 151.365 151.168 147.221 151.168 142.386C151.168 137.586 152.774 133.449 155.986 129.978C159.197 126.507 163.317 124.771 168.346 124.771C173.374 124.771 177.478 126.499 180.657 129.953C183.837 133.409 185.426 137.552 185.426 142.386C185.426 147.188 183.82 151.325 180.609 154.795V154.795ZM157.957 153.238C160.731 156.223 164.193 157.714 168.346 157.714C172.498 157.714 175.945 156.238 178.687 153.287C181.427 150.335 182.799 146.701 182.799 142.386C182.799 138.136 181.411 134.52 178.637 131.535C175.864 128.551 172.402 127.059 168.248 127.059C164.097 127.059 160.649 128.535 157.907 131.487C155.167 134.439 153.796 138.072 153.796 142.386C153.796 146.637 155.183 150.253 157.957 153.238V153.238Z" fill="#8B8B8B"/>
</svg>
