<svg width="409" height="469" viewBox="0 0 409 469" fill="none" xmlns="http://www.w3.org/2000/svg">
<path fill-rule="evenodd" clip-rule="evenodd" d="M154.139 0.121124C162.165 0.121124 170.192 0.121124 178.218 0.121124C228.912 127.435 279.707 254.907 330.402 382.221C310.911 382.242 291.357 382.2 271.866 382.221C254.068 345.459 236.575 308.407 225.453 287.677C200.04 240.31 165.097 233.807 118.959 233.349L75.3734 233.317C55.2338 282.952 35.0942 332.591 14.9546 382.226C10.0026 382.231 5.05068 382.231 0.0991211 382.237C51.4474 254.865 102.791 127.493 154.139 0.121124V0.121124ZM144.135 62.6443C165.382 118.539 191.059 185.634 212.306 241.528C203.325 234.957 181.293 226.324 130.819 224.305L78.9386 224.442C100.671 170.509 122.403 116.577 144.135 62.6443Z" fill="#1F1B20"/>
<path d="M406.53 0.095459H342.161V382.226H406.53V0.095459Z" fill="#1F1B20"/>
<path d="M4.42017 467.132V414.891H8.30134V467.132H4.42017ZM24.3466 467.132V414.891H28.0029L64.0494 460.34V414.891H67.7805V467.132H64.8703L28.0777 420.712V467.132H24.3466ZM97.7813 467.132V418.473H79.5719V414.891H119.872V418.473H101.662V467.132H97.7813ZM131.663 467.132V414.891H168.829V418.473H135.544V438.997H165.47V442.578H135.544V463.549H169.202V467.132H131.663ZM181.665 467.132V414.891H203.606C209.975 414.891 214.875 416.607 218.309 420.04C220.945 422.677 222.264 425.961 222.264 429.892C222.264 434.12 220.871 437.503 218.084 440.041C215.298 442.578 211.592 444.17 206.965 444.817L224.204 467.132H219.279L202.636 445.489H185.546V467.132H181.665V467.132ZM185.546 441.982H203.159C207.636 441.982 211.293 440.899 214.129 438.735C216.965 436.571 218.383 433.623 218.383 429.892C218.383 426.359 217.065 423.573 214.428 421.533C211.791 419.493 208.109 418.473 203.382 418.473H185.546V441.982V441.982ZM236.144 467.132V414.891H240.026V467.132H236.144ZM298.908 460.041C293.983 465.365 287.664 468.027 279.952 468.027C272.24 468.027 265.947 465.378 261.071 460.079C256.195 454.78 253.758 448.424 253.758 441.011C253.758 433.647 256.221 427.304 261.146 421.981C266.072 416.657 272.39 413.995 280.102 413.995C287.814 413.995 294.107 416.645 298.983 421.943C303.859 427.243 306.297 433.598 306.297 441.011C306.297 448.375 303.834 454.719 298.908 460.041ZM264.168 457.653C268.422 462.231 273.733 464.52 280.102 464.52C286.47 464.52 291.756 462.255 295.96 457.728C300.164 453.201 302.267 447.628 302.267 441.011C302.267 434.494 300.139 428.946 295.886 424.369C291.632 419.792 286.321 417.503 279.952 417.503C273.584 417.503 268.298 419.767 264.093 424.295C259.889 428.822 257.788 434.395 257.788 441.011C257.788 447.529 259.915 453.076 264.168 457.653V457.653ZM319.506 467.132V414.891H341.447C347.815 414.891 352.716 416.607 356.149 420.04C358.786 422.677 360.105 425.961 360.105 429.892C360.105 434.12 358.712 437.503 355.925 440.041C353.139 442.578 349.433 444.17 344.806 444.817L362.045 467.132H357.119L340.477 445.489H323.387V467.132H319.506V467.132ZM323.387 441.982H341C345.477 441.982 349.134 440.899 351.97 438.735C354.806 436.571 356.224 433.623 356.224 429.892C356.224 426.359 354.906 423.573 352.268 421.533C349.631 419.493 345.95 418.473 341.223 418.473H323.387V441.982V441.982ZM391.15 467.878C383.339 467.878 376.324 465.092 370.105 459.519L372.642 456.609C375.578 459.345 378.488 461.323 381.374 462.542C384.259 463.761 387.593 464.37 391.374 464.37C395.255 464.37 398.426 463.388 400.89 461.422C403.352 459.457 404.584 456.932 404.584 453.847C404.584 450.962 403.551 448.673 401.487 446.981C399.422 445.29 395.528 443.872 389.807 442.728C383.539 441.434 379.036 439.643 376.3 437.354C373.562 435.066 372.195 431.906 372.195 427.876C372.195 423.996 373.787 420.736 376.971 418.1C380.155 415.463 384.16 414.144 388.986 414.144C392.668 414.144 395.89 414.654 398.65 415.675C401.412 416.694 404.16 418.299 406.898 420.489L404.435 423.548C399.907 419.618 394.707 417.652 388.837 417.652C385.056 417.652 381.984 418.61 379.62 420.526C377.257 422.441 376.075 424.817 376.075 427.653C376.075 430.588 377.133 432.927 379.247 434.668C381.361 436.409 385.379 437.877 391.3 439.071C397.32 440.314 401.685 442.081 404.397 444.37C407.108 446.658 408.465 449.743 408.465 453.623C408.465 457.803 406.847 461.224 403.613 463.885C400.379 466.547 396.225 467.878 391.15 467.878V467.878Z" fill="#2B2A29"/>
</svg>
