<?xml version="1.0" encoding="UTF-8"?>
<!DOCTYPE svg PUBLIC "-//W3C//DTD SVG 1.1//EN" "http://www.w3.org/Graphics/SVG/1.1/DTD/svg11.dtd">
<!-- Creator: CorelDRAW 2018 (64-Bit) -->
<svg xmlns="http://www.w3.org/2000/svg" xml:space="preserve" width="90mm" height="55mm" version="1.1" style="shape-rendering:geometricPrecision; text-rendering:geometricPrecision; image-rendering:optimizeQuality; fill-rule:evenodd; clip-rule:evenodd"
viewBox="0 0 9000 5500"
 xmlns:xlink="http://www.w3.org/1999/xlink">
 <defs>
  <style type="text/css">
   <![CDATA[
    .fil0 {fill:#1F1B20}
    .fil1 {fill:#2B2A29;fill-rule:nonzero}
   ]]>
  </style>
 </defs>
 <g id="Слой_x0020_1">
  <metadata id="CorelCorpID_0Corel-Layer"/>
  <path class="fil0" d="M4230.73 1775.79c25.99,0 51.98,0 77.97,0 164.15,412.25 328.63,825.01 492.79,1237.27 -63.12,0.06 -126.44,-0.07 -189.55,0 -57.63,-119.04 -114.27,-239.02 -150.29,-306.15 -82.29,-153.37 -195.43,-174.43 -344.83,-175.91 0,0 -141.14,-0.11 -141.14,-0.11 -65.21,160.72 -130.42,321.46 -195.64,482.18 -16.03,0.02 -32.07,0.02 -48.1,0.04 166.27,-412.44 332.52,-824.88 498.79,-1237.32zm-32.39 202.45c68.8,180.99 151.94,398.25 220.74,579.24 -29.08,-21.28 -100.42,-49.23 -263.86,-55.77 0,0 -167.99,0.44 -167.99,0.44 70.37,-174.63 140.74,-349.27 211.11,-523.91z"/>
  <rect class="fil0" x="4873.39" y="1775.7" width="208.43" height="1237.37"/>
  <path class="fil1" d="M3731.88 3395.53l0 -253.2 84.28 0c39.55,0 71.86,12 96.93,35.99 25.09,24 37.63,54.2 37.63,90.61 0,36.18 -12.61,66.31 -37.8,90.43 -25.2,24.12 -57.46,36.17 -96.76,36.17l-84.28 0zm18.81 -17.36l65.47 0c34.48,0 62.28,-10.37 83.37,-31.11 21.1,-20.74 31.65,-46.78 31.65,-78.13 0,-30.86 -10.55,-56.79 -31.65,-77.77 -21.09,-20.97 -48.89,-31.46 -83.37,-31.46l-65.47 0 0 218.47zm264.05 17.36l0 -253.2 180.13 0 0 17.37 -161.32 0 0 99.46 145.04 0 0 17.37 -145.04 0 0 101.64 163.13 0 0 17.36 -181.94 0zm328.08 3.62c-37.86,0 -71.87,-13.5 -102.01,-40.51l12.3 -14.11c14.23,13.26 28.33,22.85 42.32,28.76 13.99,5.91 30.15,8.86 48.47,8.86 18.81,0 34.18,-4.76 46.12,-14.28 11.94,-9.53 17.9,-21.78 17.9,-36.72 0,-13.99 -5,-25.08 -15,-33.28 -10.02,-8.19 -28.89,-15.07 -56.61,-20.62 -30.39,-6.27 -52.22,-14.95 -65.48,-26.04 -13.26,-11.09 -19.89,-26.41 -19.89,-45.94 0,-18.8 7.71,-34.6 23.15,-47.39 15.43,-12.78 34.84,-19.16 58.24,-19.16 17.84,0 33.46,2.47 46.84,7.41 13.38,4.94 26.71,12.72 39.97,23.33l-11.94 14.83c-21.94,-19.05 -47.15,-28.58 -75.6,-28.58 -18.33,0 -33.21,4.64 -44.67,13.93 -11.45,9.29 -17.18,20.8 -17.18,34.55 0,14.22 5.12,25.55 15.37,34 10.25,8.44 29.72,15.55 58.42,21.34 29.18,6.02 50.34,14.59 63.48,25.68 13.14,11.1 19.71,26.04 19.71,44.86 0,20.25 -7.83,36.83 -23.51,49.73 -15.67,12.9 -35.81,19.35 -60.4,19.35zm148.3 -3.62l0 -253.2 18.8 0 0 253.2 -18.8 0zm212.69 4.34c-38.83,0 -69.76,-12.54 -92.79,-37.62 -23.02,-25.08 -34.54,-56.18 -34.54,-93.32 0,-35.44 11.7,-66.13 35.09,-92.05 23.39,-25.93 53.41,-38.89 90.07,-38.89 19.53,0 36.47,2.77 50.81,8.32 14.36,5.55 28.28,13.86 41.79,24.96l-12.31 14.11c-23.14,-20.26 -50.27,-30.38 -81.38,-30.38 -30.14,0 -55.1,11.09 -74.87,33.27 -19.78,22.19 -29.67,49.07 -29.67,80.66 0,33.52 9.77,60.96 29.3,82.29 19.53,21.35 45.94,32.02 79.22,32.02 15.19,0 29.96,-2.72 44.31,-8.14 14.35,-5.43 26.46,-12.36 36.35,-20.8l0 -72.71 -84.64 0 0 -17.36 102.73 0 0 97.66c-12.54,11.09 -27.43,20.2 -44.67,27.31 -17.25,7.12 -35.52,10.67 -54.8,10.67zm167.47 -4.34l0 -253.2 17.72 0 174.72 220.29 0 -220.29 18.08 0 0 253.2 -14.11 0 -178.33 -224.98 0 224.98 -18.08 0z"/>
 </g>
</svg>
