<svg width="188" height="161" viewBox="0 0 188 161" fill="none" xmlns="http://www.w3.org/2000/svg">
<path fill-rule="evenodd" clip-rule="evenodd" d="M16.4978 112.08L16.5098 55.4748L28.3889 55.4903C46.6361 56.5833 54.293 63.7395 54.2355 82.3522C54.1528 109.016 39.6035 111.97 27.4232 112.08H16.4978V112.08ZM16.5094 52.6738L16.5125 3.88581C16.5125 3.88581 25.3143 3.88691 27.4146 3.88691C43.2587 3.88691 48.1623 13.711 48.0568 28.1341C48.2583 46.054 42.5292 52.0721 28.2252 52.6663L16.5094 52.6738V52.6738ZM0.290771 114.914L27.4561 114.891C49.6839 114.63 71.3799 108.883 70.4505 82.3888C69.8806 66.1407 61.8358 57.1631 46.5884 52.8711C56.7569 47.6686 61.1116 42.1123 61.0984 30.3863C61.0708 6.55979 46.311 1.31118 27.4296 0.712885L0.515993 0.666748L0.290771 114.914V114.914Z" fill="#FEFEFE"/>
<path fill-rule="evenodd" clip-rule="evenodd" d="M126.37 111.675L126.371 3.8707C140.9 3.98408 156.204 2.46964 162.431 15.193C167.804 25.3528 168.814 93.6995 161.263 102.143C156.469 109.38 146.948 111.439 135.124 111.679L126.37 111.675V111.675ZM104.841 114.897L146.791 114.963C155.728 114.386 163.854 113.046 169.393 110.209C188.153 100.602 187.113 82.4663 187.112 57.862C187.112 33.0479 188.144 14.922 169.392 5.12624C164.54 2.59207 157.306 1.29757 149.213 0.685669L104.841 0.751072V114.897Z" fill="#FEFEFE"/>
<path fill-rule="evenodd" clip-rule="evenodd" d="M75.9562 114.893H96.8328L96.8308 0.725382L75.9565 0.724976L75.9562 114.893Z" fill="#FEFEFE"/>
<path d="M14.1866 160.571C9.09329 160.571 4.51817 158.755 0.463867 155.121L2.11815 153.224C4.03172 155.008 5.92983 156.297 7.81128 157.093C9.69311 157.887 11.8667 158.285 14.3324 158.285C16.8625 158.285 18.9303 157.643 20.5362 156.363C22.1421 155.081 22.9445 153.434 22.9445 151.423C22.9445 149.542 22.2721 148.05 20.9258 146.946C19.5788 145.844 17.0405 144.918 13.3105 144.172C9.22294 143.329 6.28585 142.161 4.50191 140.669C2.71797 139.177 1.82597 137.117 1.82597 134.489C1.82597 131.959 2.86386 129.834 4.93995 128.114C7.01604 126.394 9.62773 125.536 12.7749 125.536C15.1749 125.536 17.2763 125.868 19.0765 126.532C20.8767 127.198 22.6697 128.244 24.4537 129.671L22.8477 131.667C19.8959 129.104 16.5049 127.822 12.677 127.822C10.2116 127.822 8.2092 128.446 6.66753 129.696C5.12738 130.945 4.35604 132.494 4.35604 134.343C4.35604 136.257 5.04577 137.781 6.42378 138.917C7.80331 140.053 10.4229 141.009 14.2829 141.788C18.2087 142.599 21.0558 143.751 22.8239 145.243C24.5916 146.736 25.4756 148.746 25.4756 151.277C25.4756 154.002 24.4215 156.233 22.3122 157.969C20.204 159.703 17.4948 160.571 14.1866 160.571V160.571ZM42.5065 160.085V128.358H30.6336V126.022H56.9107V128.358H45.0377V160.085H42.5065ZM78.0303 160.62C73.8453 160.62 70.4713 159.339 67.908 156.776C65.3458 154.213 64.0642 150.596 64.0642 145.924V126.022H66.5942V145.68C66.5942 149.672 67.6159 152.778 69.6599 155C71.7038 157.222 74.5267 158.333 78.1271 158.333C81.6629 158.333 84.4367 157.271 86.4481 155.145C88.4596 153.021 89.4657 149.947 89.4657 145.924V126.022H91.9957V145.632C91.9957 150.401 90.7299 154.091 88.1999 156.703C85.6699 159.315 82.28 160.62 78.0303 160.62V160.62ZM101.582 160.085V126.022H112.92C118.241 126.022 122.587 127.636 125.961 130.863C129.336 134.091 131.022 138.155 131.022 143.053C131.022 147.92 129.326 151.974 125.937 155.219C122.547 158.463 118.208 160.085 112.92 160.085H101.582ZM104.112 157.749H112.92C117.559 157.749 121.298 156.353 124.136 153.564C126.974 150.774 128.394 147.27 128.394 143.053C128.394 138.901 126.974 135.413 124.136 132.591C121.298 129.769 117.559 128.358 112.92 128.358H104.112V157.749ZM139.975 160.085V126.022H142.505V160.085H139.975ZM180.9 155.461C177.688 158.933 173.568 160.669 168.539 160.669C163.511 160.669 159.408 158.941 156.228 155.487C153.049 152.032 151.459 147.888 151.459 143.053C151.459 138.252 153.065 134.115 156.276 130.645C159.488 127.174 163.608 125.438 168.637 125.438C173.665 125.438 177.768 127.166 180.948 130.62C184.127 134.075 185.717 138.219 185.717 143.053C185.717 147.854 184.111 151.991 180.9 155.461V155.461ZM158.248 153.905C161.022 156.889 164.484 158.381 168.637 158.381C172.789 158.381 176.236 156.905 178.978 153.953C181.718 151.002 183.089 147.368 183.089 143.053C183.089 138.803 181.702 135.187 178.928 132.201C176.154 129.218 172.692 127.725 168.539 127.725C164.387 127.725 160.94 129.201 158.198 132.153C155.458 135.105 154.087 138.739 154.087 143.053C154.087 147.304 155.474 150.92 158.248 153.905V153.905Z" fill="#FEFEFE"/>
</svg>
