<svg width="409" height="468" viewBox="0 0 409 468" fill="none" xmlns="http://www.w3.org/2000/svg">
<path fill-rule="evenodd" clip-rule="evenodd" d="M154.04 0.0256348C162.066 0.0256348 170.093 0.0256348 178.119 0.0256348C228.813 127.339 279.608 254.812 330.303 382.125C310.812 382.146 291.258 382.104 271.767 382.125C253.968 345.363 236.476 308.311 225.354 287.581C199.941 240.214 164.998 233.712 118.86 233.253L75.2742 233.222C55.1346 282.856 34.9951 332.496 14.8555 382.131C9.90353 382.136 4.95156 382.136 0 382.141C51.3483 254.769 102.692 127.398 154.04 0.0256348ZM144.036 62.5488C165.283 118.443 190.96 185.538 212.207 241.433C203.226 234.862 181.194 226.229 130.72 224.209L78.8395 224.346C100.572 170.414 122.304 116.481 144.036 62.5488Z" fill="white"/>
<path d="M406.431 0H342.062V382.131H406.431V0Z" fill="white"/>
<path d="M4.32104 467.036V414.796H8.20222V467.036H4.32104ZM24.2475 467.036V414.796H27.9037L63.9503 460.244V414.796H67.6814V467.036H64.7712L27.9786 420.617V467.036H24.2475ZM97.6822 467.036V418.378H79.4728V414.796H119.773V418.378H101.563V467.036H97.6822ZM131.564 467.036V414.796H168.73V418.378H135.445V438.901H165.371V442.483H135.445V463.454H169.103V467.036H131.564ZM181.566 467.036V414.796H203.507C209.876 414.796 214.776 416.512 218.209 419.944C220.846 422.581 222.165 425.866 222.165 429.796C222.165 434.025 220.772 437.408 217.985 439.946C215.199 442.483 211.493 444.075 206.866 444.722L224.105 467.036H219.18L202.537 445.394H185.447V467.036H181.566ZM185.447 441.886H203.06C207.537 441.886 211.194 440.804 214.03 438.64C216.866 436.475 218.283 433.528 218.283 429.796C218.283 426.263 216.966 423.478 214.329 421.438C211.692 419.398 208.01 418.378 203.283 418.378H185.447V441.886ZM236.045 467.036V414.796H239.927V467.036H236.045ZM298.809 459.946C293.883 465.27 287.565 467.932 279.853 467.932C272.141 467.932 265.848 465.283 260.972 459.983C256.096 454.685 253.659 448.329 253.659 440.916C253.659 433.552 256.121 427.209 261.047 421.885C265.972 416.561 272.291 413.9 280.003 413.9C287.715 413.9 294.008 416.549 298.883 421.848C303.76 427.147 306.198 433.502 306.198 440.916C306.198 448.279 303.734 454.623 298.809 459.946ZM264.069 457.558C268.323 462.135 273.634 464.424 280.003 464.424C286.371 464.424 291.657 462.16 295.861 457.633C300.065 453.106 302.167 447.533 302.167 440.916C302.167 434.398 300.04 428.851 295.787 424.273C291.533 419.697 286.222 417.408 279.853 417.408C273.485 417.408 268.199 419.671 263.994 424.199C259.79 428.726 257.688 434.299 257.688 440.916C257.688 447.434 259.816 452.981 264.069 457.558ZM319.407 467.036V414.796H341.348C347.716 414.796 352.617 416.512 356.05 419.944C358.687 422.581 360.006 425.866 360.006 429.796C360.006 434.025 358.612 437.408 355.826 439.946C353.04 442.483 349.334 444.075 344.706 444.722L361.946 467.036H357.02L340.378 445.394H323.288V467.036H319.407ZM323.288 441.886H340.9C345.378 441.886 349.035 440.804 351.871 438.64C354.707 436.475 356.124 433.528 356.124 429.796C356.124 426.263 354.806 423.478 352.169 421.438C349.532 419.398 345.85 418.378 341.124 418.378H323.288V441.886ZM391.051 467.782C383.24 467.782 376.225 464.996 370.006 459.424L372.543 456.513C375.479 459.249 378.389 461.228 381.275 462.446C384.16 463.665 387.494 464.275 391.275 464.275C395.156 464.275 398.327 463.293 400.79 461.327C403.253 459.362 404.485 456.837 404.485 453.752C404.485 450.866 403.452 448.578 401.388 446.886C399.323 445.194 395.429 443.776 389.708 442.632C383.439 441.339 378.937 439.548 376.201 437.259C373.463 434.97 372.095 431.811 372.095 427.781C372.095 423.901 373.688 420.641 376.872 418.005C380.056 415.368 384.061 414.049 388.887 414.049C392.569 414.049 395.791 414.559 398.551 415.58C401.313 416.599 404.061 418.203 406.798 420.393L404.336 423.452C399.807 419.522 394.608 417.557 388.738 417.557C384.957 417.557 381.885 418.514 379.521 420.431C377.158 422.346 375.976 424.721 375.976 427.557C375.976 430.493 377.034 432.831 379.148 434.572C381.262 436.314 385.28 437.781 391.201 438.976C397.221 440.219 401.586 441.986 404.298 444.274C407.009 446.563 408.365 449.648 408.365 453.528C408.365 457.708 406.748 461.128 403.514 463.79C400.28 466.452 396.126 467.782 391.051 467.782Z" fill="white"/>
</svg>
